<?xml version="1.0" encoding="utf-8"?>
<!-- Generator: Adobe Illustrator 24.3.0, SVG Export Plug-In . SVG Version: 6.00 Build 0)  -->
<svg version="1.1" id="Слой_1" xmlns="http://www.w3.org/2000/svg" xmlns:xlink="http://www.w3.org/1999/xlink" x="0px" y="0px"
	 viewBox="0 0 2433 2500" style="enable-background:new 0 0 2433 2500;" xml:space="preserve">
<style type="text/css">
	.st0{fill:#FFFFFF;}
</style>
<path class="st0" d="M1447.4,1250.1l272.5-470.6l131.7,470.6l-131.7,470.5L1447.4,1250.1L1447.4,1250.1z M1314.6,1326.5l272.6,470.5
	l-474.7-121.6l-342.9-348.9H1314.6z M1587.1,703l-272.5,470.6h-545l342.9-348.9L1587.1,703z M1976.2,1089.9l-166.3-618.6
	l-620.6,165.8l-91.9,161.5l-186.4-1.3l-454.2,452.7l454.2,452.7l0,0l186.3-1.4l92,161.5l620.5,165.7l166.3-618.4l-94.4-160.2
	L1976.2,1089.9L1976.2,1089.9z"/>
</svg>
